<?xml version="1.0" encoding="UTF-8"?>
<!DOCTYPE svg PUBLIC "-//W3C//DTD SVG 1.1//EN" "http://www.w3.org/Graphics/SVG/1.1/DTD/svg11.dtd">
<svg xmlns="http://www.w3.org/2000/svg" xmlns:xlink="http://www.w3.org/1999/xlink" version="1.1" width="321px" height="201px" viewBox="-0.5 -0.5 321 201"><defs/><g><path d="M 0 87.5 Q 80 245 160 87.5 Q 240 -70 320 87.5 L 320 112.5 Q 240 -45 160 112.5 Q 80 270 0 112.5 L 0 87.5 Z" fill="#000000" stroke="rgb(0, 0, 0)" stroke-miterlimit="10" pointer-events="all"/><rect x="40" y="0" width="50" height="20" fill="#000000" stroke="rgb(0, 0, 0)" pointer-events="all"/><rect x="20" y="60" width="120" height="20" fill="#000000" stroke="rgb(0, 0, 0)" pointer-events="all"/><rect x="0" y="180" width="220" height="20" fill="#000000" stroke="rgb(0, 0, 0)" pointer-events="all"/><rect x="120" y="0" width="60" height="20" fill="#000000" stroke="rgb(0, 0, 0)" pointer-events="all"/><rect x="210" y="0" width="70" height="20" fill="#000000" stroke="rgb(0, 0, 0)" pointer-events="all"/><rect x="180" y="60" width="120" height="20" fill="#000000" stroke="rgb(0, 0, 0)" pointer-events="all"/><rect x="80" y="120" width="100" height="20" fill="#000000" stroke="rgb(0, 0, 0)" pointer-events="all"/><rect x="210" y="120" width="30" height="20" fill="#000000" stroke="rgb(0, 0, 0)" pointer-events="all"/><rect x="250" y="180" width="70" height="20" fill="#000000" stroke="rgb(0, 0, 0)" pointer-events="all"/></g></svg>